<?xml version="1.0" encoding="UTF-8" standalone="no"?>
<svg
   version="1.1"
   viewBox="0 0 595 550"
   id="svg120"
   sodipodi:docname="Vertical Logo.svg"
   inkscape:version="1.3.2 (091e20ef0f, 2023-11-25)"
   inkscape:export-filename="vertical logo.png"
   inkscape:export-xdpi="96"
   inkscape:export-ydpi="96"
   width="595"
   height="550"
   xmlns:inkscape="http://www.inkscape.org/namespaces/inkscape"
   xmlns:sodipodi="http://sodipodi.sourceforge.net/DTD/sodipodi-0.dtd"
   xmlns="http://www.w3.org/2000/svg"
   xmlns:svg="http://www.w3.org/2000/svg">
  <defs
     id="defs120">
    <rect
       x="222.88557"
       y="622.80597"
       width="608.79602"
       height="154.10945"
       id="rect121" />
    <rect
       x="197.41293"
       y="627.90051"
       width="647.005"
       height="188.49751"
       id="rect120" />
  </defs>
  <sodipodi:namedview
     id="namedview120"
     pagecolor="#ffffff"
     bordercolor="#000000"
     borderopacity="0.25"
     inkscape:showpageshadow="2"
     inkscape:pageopacity="0.0"
     inkscape:pagecheckerboard="0"
     inkscape:deskcolor="#d1d1d1"
     inkscape:zoom="1.4323323"
     inkscape:cx="340.00489"
     inkscape:cy="275.07583"
     inkscape:window-width="1920"
     inkscape:window-height="1008"
     inkscape:window-x="0"
     inkscape:window-y="0"
     inkscape:window-maximized="1"
     inkscape:current-layer="svg120" />
  <g
     id="g1"
     transform="translate(-225.43284,-224.1592)">
    <path
       fill="#252324"
       d="m 615.43,296.36 q -0.13,-7.33 0.41,-15.27 a 0.34,0.35 22.4 0 1 0.57,-0.24 c 21.95,19 38.06,45.48 48.98,72.05 q 2.72,6.6 4.55,13.76 a 0.84,0.84 0 0 0 1.42,0.37 c 10.72,-11.12 13.13,-27.78 9.28,-43.06 q -0.33,-1.29 0.61,-0.34 c 4.92,4.96 9.32,10.71 11.69,17.2 5.9,16.19 4.16,38.49 -10.71,49.68 q -0.38,0.29 -0.2,0.73 7.49,19.2 4.49,37.85 a 0.51,0.51 0 0 0 0.56,0.59 q 0.55,-0.05 0.85,-0.52 1.78,-2.76 2.32,-6.06 0.42,-2.48 1.17,-0.08 1.43,4.61 2.65,9.76 6.28,26.72 -8.46,50.38 -5.25,8.42 -12.05,16.53 -3.24,3.87 -6.97,7.01 a 1.07,1.06 63.9 0 0 -0.35,1.03 c 4.19,19.73 -4.58,37.56 -16.53,52.52 a 1.28,1.27 57.4 0 0 -0.24,1.1 q 3.2,12.69 -4.53,22.8 -1.42,1.87 -3.68,2.08 -10.32,0.94 -23.8,1.5 -2.56,0.11 -5.25,-0.27 -0.53,-0.07 -1,0.19 l -6.84,3.94 a 1.3,1.3 0 0 1 -1.89,-0.75 l -2.84,-9.48 a 0.61,0.6 58.6 0 0 -1.02,-0.25 q -7.42,7.89 -15.13,15.83 c -2.78,2.86 -6.17,6.66 -6.1,10.7 a 0.69,0.69 0 0 1 -1.21,0.47 q -14.06,-15.97 -5.02,-35.4 3.65,-7.85 9.21,-13.65 a 0.59,0.59 0 0 0 -0.11,-0.91 c -7.21,-4.66 -14.28,-10.21 -19.18,-17.16 q -4.76,-6.74 -2.72,-14.95 0.27,-1.08 -0.37,-0.17 -5.81,8.34 -10.53,18.43 -0.26,0.55 -0.77,0.89 a 0.62,0.62 0 0 1 -0.89,-0.24 q -3.71,-7.19 -7.13,-13.89 -5.87,-11.54 -7.49,-24.21 -0.1,-0.8 -0.64,-0.2 -5.17,5.71 -10.14,11.78 c -2.15,2.64 -3.69,5.8 -6.12,8.17 q -0.4,0.38 0.01,0.76 3.89,3.65 8.23,7.34 16.31,13.87 18.82,35.99 0.61,5.37 0.17,10.01 a 0.78,0.78 0 0 1 -0.96,0.68 q -11.3,-2.78 -20.95,-8.68 -0.86,-0.52 -0.61,0.45 c 4.01,16.15 2.65,34.91 -1.49,50.62 q -1.16,4.42 -3.88,8.07 a 0.42,0.42 0 0 1 -0.7,-0.04 q -1.44,-2.46 -3.51,-4.43 c -10.16,-9.68 -24.02,-15.58 -37.33,-20.02 a 3.15,3.14 0.2 0 1 -2.01,-2.02 c -5.23,-16.06 -11.46,-33.12 -21.55,-46.22 -5.28,-6.87 -13.18,-11.34 -20.24,-16.25 -3.93,-2.75 -7.45,-5.87 -10.94,-9.09 q -0.77,-0.7 -0.51,0.31 c 4.83,19.21 5.18,38.86 0.88,58.09 q -0.13,0.56 -0.68,0.38 -7.63,-2.6 -15.98,-5.01 c -6.1,-1.76 -12.42,-1.1 -18.51,-0.58 a 1.35,1.34 74.2 0 1 -1.32,-0.74 q -9.48,-18.94 -20.24,-36.14 -1.61,-2.57 -4.26,-6.07 c -3.8,-5.02 -8.42,-8.95 -12.65,-13.43 -23.77,-25.22 -24.75,-64.17 -14.6,-95.66 q 0.34,-1.05 0.01,-2.07 -4.41,-13.61 -4.7,-29.31 -0.41,-22.81 5.7,-44.43 0.14,-0.49 -0.37,-0.62 -13.18,-3.29 -19.18,-15.07 -7.11,-13.98 -2.33,-28.99 a 0.46,0.47 25.7 0 1 0.7,-0.25 q 5.42,3.54 11.03,6.44 c 1.42,0.73 3.25,1.35 4.82,1.58 q 7.08,1.04 12.35,2.46 c 10.91,2.95 16.05,15.07 13.46,25.54 q -1.81,7.35 -3.69,14.59 -4.91,18.99 -5.89,38.29 -0.08,1.4 0.51,0.13 7.9,-17.2 18.34,-33.89 c 19.83,-31.69 42.65,-60.85 70.63,-85.26 23.22,-20.26 49.77,-36.74 78.23,-45.73 q 19.55,-6.17 38.66,-1.01 c 29.96,8.1 56.74,29.38 67.37,59.1 q 0.32,0.9 0.31,-0.06 z m -258.37,223.5 q 2.89,3.1 6.52,6.69 3.74,3.71 6.66,7.48 11.21,14.48 20.9,32.47 a 2.16,2.15 75.4 0 0 1.93,1.14 q 5.28,-0.07 10.33,1.6 a 0.59,0.59 0 0 0 0.77,-0.63 q -2.06,-17.36 -7.38,-35.62 c -0.67,-2.3 -0.91,-3.55 -3.2,-4.93 q -2.33,-1.41 -4.65,-2.81 -6.88,-4.14 -10.78,-11.09 c -5.99,-14.09 -5.78,-31.58 -1.75,-45.9 q 5.62,-19.93 17.6,-36.27 2.72,-3.71 7.95,-9.45 -0.91,5.29 -1.9,9.97 -2.36,11.25 -2.57,22.69 c -0.42,23.68 8.59,47.84 26.52,63.23 8.37,7.18 18.63,12.73 26.96,19.47 15.67,12.66 24.44,29.38 30.46,48.68 a 1.64,1.62 87.7 0 0 1.18,1.1 q 10.84,2.54 19.56,10.22 1.02,0.89 0.92,-0.46 C 501.1,569.65 493.5,543.6 483.94,517.82 q -5.08,-13.69 -10.06,-23.36 -7.07,-13.72 -19.77,-28.92 -2.27,-2.73 1.01,-1.38 10.79,4.41 21.42,12.88 9.97,7.94 19.04,14.12 1.24,0.85 2.66,1.36 0.92,0.33 0.49,-0.55 -3.62,-7.58 -6.38,-14.83 -5.47,-14.38 -6.96,-33.04 -1.23,-15.48 -0.38,-30.55 0.11,-1.9 1.05,-0.25 c 8.07,14.23 19.51,27.38 34.93,32.9 q 2.17,0.77 1.16,-1.3 -2.32,-4.74 -5.26,-8.7 -6.32,-8.51 -10.7,-16.01 c -6.98,-11.98 -11.19,-25.77 -11.23,-39.85 -0.07,-21.86 10.61,-43 28.39,-56.17 q 5.3,-3.93 11.19,-4.81 a 0.68,0.68 0 0 1 0.71,0.96 l -2.59,5.52 q -4.61,12.71 0.12,25.17 c 4.21,11.08 11.95,18.82 21.72,25.3 q 1.26,0.85 2.67,0.87 0.58,0.01 0.93,-0.45 8.51,-10.82 20.19,-17.88 12.27,-6.36 26.14,-7.6 0.52,-0.04 0.53,-0.56 0.65,-27.95 -14.75,-50.36 c -14.88,-21.67 -36.92,-35.81 -63.55,-35.19 q -16.66,0.39 -26.34,3.42 -9.26,2.89 -14.13,3.59 12.25,-8.21 21.43,-15.87 3.07,-2.57 -0.66,-1.12 -33.1,12.85 -60.82,36.89 -25.51,22.13 -46.94,49.24 -16.81,21.25 -32.37,47.98 -15.49,26.59 -23.14,52.66 c -7.35,25.01 -6.76,51.16 8.6,72.75 q 1.89,2.65 4.77,5.18 z M 334.08,340.35 a 0.72,0.72 0 0 0 -0.29,-0.21 l -8.36,-3.37 a 0.72,0.72 0 0 0 -0.74,1.21 l 8.97,7.79 a 0.72,0.72 0 0 0 0.52,0.18 l 2.81,-0.19 a 0.72,0.72 0 0 0 0.51,-1.18 z m 214.45,55.05 c -17.93,-7.04 -30.99,-22.79 -31.35,-42.41 q -0.07,-3.44 -1.13,-0.17 c -7.2,22.29 -6.4,45.85 13.64,61.34 q 7.71,5.96 15.73,10.53 a 0.41,0.41 0 0 0 0.61,-0.38 c -0.44,-8.95 -0.47,-19.49 2.86,-28.1 q 0.23,-0.58 -0.36,-0.81 z m 22.06,30.82 q 1.8,0.75 3.09,1.25 1.59,0.6 3.23,0.78 13.9,1.47 24.74,11.3 c 13.89,12.6 15.15,35.42 13.72,52.6 q -0.05,0.53 -0.38,0.94 a 0.34,0.34 0 0 1 -0.59,-0.14 q -2.54,-11.09 -7.51,-22.59 a 0.68,0.68 0 0 0 -0.83,-0.37 q -3.59,1.16 -7.32,0.72 -6.29,-0.76 -18.48,-5.52 c -8.39,-3.36 -13.69,-8.93 -15.43,-17.46 q -0.48,-2.31 1.24,-0.69 4.59,4.35 12.08,6.57 0.57,0.17 0.53,-0.42 l -0.75,-9.67 q -0.11,-1.51 -1.57,-1.93 -10.5,-3.05 -18.97,-8 -0.48,-0.28 -0.63,0.25 l -2.42,8.39 q -2.48,10.86 0.65,21.28 c 1.41,13.93 11.83,26.23 23.93,32.11 q 4.74,2.3 13.76,5 0.64,0.37 0.25,1.12 -0.22,0.42 -0.64,0.62 -7.27,3.47 -12.5,9.62 c -6.21,7.3 -5.54,18.42 1.52,25 10.84,10.12 26.83,19.96 28.01,35.85 a 0.45,0.45 0 0 0 0.76,0.3 q 7.01,-6.44 14.01,-6.98 5.75,-0.45 14.16,1.24 a 0.14,0.14 0 0 0 0.17,-0.15 q -0.16,-3.07 -1.01,-5.71 -0.05,-0.17 -0.23,-0.18 -7.99,-0.37 -15.9,-0.35 c -12.11,0.03 -18.48,-11.19 -22.01,-21.87 -1.1,-3.31 -3.51,-11.31 -0.7,-14.18 q 1.54,-1.57 3.64,-0.41 8.45,4.63 18.45,7.3 4.18,1.2 10.09,0.92 8.79,-0.42 16.99,-4.9 c 4.86,-2.65 5.88,-7.52 5.81,-12.69 q -0.09,-7.15 -1.26,-14.18 -0.42,-2.54 1.5,-4.26 c 9.92,-8.87 18.65,-19.54 23.66,-31.38 q 0.51,-1.23 0.49,-2.46 -0.02,-1.23 -0.88,-0.34 c -3.99,4.15 -8.59,7.11 -14.25,7.77 q -3.31,0.4 -6.69,1.23 a 3.21,3.22 89.1 0 0 -2.38,2.45 q -1.92,8.98 -4.08,18.26 c -0.24,1.03 -0.15,2.01 -0.34,3.01 q -0.43,2.27 -1.18,0.08 -2.71,-8.02 -1.4,-18.17 2.02,-15.61 5.95,-30.36 2.83,-10.61 3.76,-19.16 2.31,-21.4 -8.08,-40.5 -4.85,-8.94 -14.89,-14.65 -14.61,-7.52 -30.77,-5.77 -12.04,1.31 -22.15,7.99 c -7.74,5.12 -12.86,11.42 -15.02,20.93 q -3.77,16.58 5.05,30.56 z m 106.16,27.61 c 3.26,-3.25 4.27,-10.08 4.48,-14.61 a 0.4,0.4 0 0 0 -0.66,-0.32 q -3.64,3.01 -7.45,5.85 -1.91,1.43 -2.4,3.58 -1.19,5.22 -2.31,10.19 a 0.41,0.41 0 0 0 0.55,0.47 q 4.35,-1.73 7.79,-5.16 z m -96.15,-0.19 q 0,0.41 0.34,0.65 5.44,3.94 12.26,5.14 a 1.97,1.97 0 0 0 2.3,-1.77 c 0.39,-4.5 -6.17,-9.8 -9.68,-11.71 q -3.07,-1.68 -6.08,-3.36 a 0.14,0.13 9.7 0 0 -0.2,0.14 q 1.01,5.92 1.06,10.91 z m 41.65,88.55 c -3.56,-0.32 -7.31,-2.08 -10.55,-3.55 q -0.75,-0.34 -0.53,0.45 c 1.92,7.17 5.07,13.19 13.73,12.71 q 9.48,-0.53 14.46,-1.97 1.3,-0.37 2,-1.73 2.52,-4.85 4.82,-9.4 0.12,-0.23 0.05,-0.47 a 0.44,0.44 0 0 0 -0.66,-0.26 c -7.54,4.66 -14.66,4.98 -23.32,4.22 z"
       id="path69" />
    <path
       fill="#dcb97c"
       d="m 486.19,272.15 q -9.56,5.55 -18.44,13.61 -7.87,7.14 -15.66,15.44 -1.1,1.17 0.35,0.48 21.63,-10.35 45.36,-12.82 11.46,-1.2 25.51,3.59 a 0.47,0.47 0 0 1 0.3,0.56 l -0.07,0.25 q -0.04,0.18 -0.23,0.15 -3.81,-0.65 -7.47,-0.48 c -20.26,0.98 -39.97,8.36 -58.68,17.7 -21.53,10.76 -39.97,25.58 -55.25,44.08 q -23.3,28.22 -39.01,63.13 c -7.93,17.62 -13.66,36.26 -14.79,55.42 q -1.39,23.69 8.95,46.6 -2.88,-2.53 -4.77,-5.18 c -15.36,-21.59 -15.95,-47.74 -8.6,-72.75 q 7.65,-26.07 23.14,-52.66 15.56,-26.73 32.37,-47.98 21.43,-27.11 46.94,-49.24 27.72,-24.04 60.82,-36.89 3.73,-1.45 0.66,1.12 -9.18,7.66 -21.43,15.87 z"
       id="path70" />
    <path
       fill="#b97d35"
       d="m 578.29,358.85 q -2.03,-4.06 -4.05,-7.95 -5.7,-10.95 -15.9,-17.92 -4.15,-2.84 -7.33,-3.76 -7.55,-2.17 -18.35,-3.38 l 2.59,-5.52 a 0.68,0.68 0 0 0 -0.71,-0.96 q -5.89,0.88 -11.19,4.81 c -17.78,13.17 -28.46,34.31 -28.39,56.17 0.04,14.08 4.25,27.87 11.23,39.85 q 4.38,7.5 10.7,16.01 2.94,3.96 5.26,8.7 1.01,2.07 -1.16,1.3 c -15.42,-5.52 -26.86,-18.67 -34.93,-32.9 q -0.94,-1.65 -1.05,0.25 -0.85,15.07 0.38,30.55 1.49,18.66 6.96,33.04 2.76,7.25 6.38,14.83 0.43,0.88 -0.49,0.55 -1.42,-0.51 -2.66,-1.36 -9.07,-6.18 -19.04,-14.12 -10.63,-8.47 -21.42,-12.88 -3.28,-1.35 -1.01,1.38 12.7,15.2 19.77,28.92 4.98,9.67 10.06,23.36 c 9.56,25.78 17.16,51.83 19.15,79.62 q 0.1,1.35 -0.92,0.46 -8.72,-7.68 -19.56,-10.22 a 1.64,1.62 87.7 0 1 -1.18,-1.1 c -6.02,-19.3 -14.79,-36.02 -30.46,-48.68 -8.33,-6.74 -18.59,-12.29 -26.96,-19.47 -17.93,-15.39 -26.94,-39.55 -26.52,-63.23 q 0.21,-11.44 2.57,-22.69 0.99,-4.68 1.9,-9.97 0.84,-3.14 2.52,-11.04 2.09,-9.79 6.53,-23.24 3.92,-11.88 9.14,-20.42 0.06,-0.1 0.09,-0.2 0.06,-0.19 -0.14,-0.25 -0.39,-0.11 -0.68,0.18 -1.45,1.42 -2.68,3.04 -5.06,6.63 -10.3,13.24 c -15.87,20.07 -27.53,43.25 -35.02,67.92 q -3.49,11.47 -4.62,20.91 -1.79,14.91 3.47,29.8 2.92,8.29 7.89,11.68 3.9,6.95 10.78,11.09 2.32,1.4 4.65,2.81 c 2.29,1.38 2.53,2.63 3.2,4.93 q 5.32,18.26 7.38,35.62 a 0.59,0.59 0 0 1 -0.77,0.63 q -5.05,-1.67 -10.33,-1.6 a 2.16,2.15 75.4 0 1 -1.93,-1.14 q -9.69,-17.99 -20.9,-32.47 -2.92,-3.77 -6.66,-7.48 -3.63,-3.59 -6.52,-6.69 -10.34,-22.91 -8.95,-46.6 c 1.13,-19.16 6.86,-37.8 14.79,-55.42 q 15.71,-34.91 39.01,-63.13 c 15.28,-18.5 33.72,-33.32 55.25,-44.08 18.71,-9.34 38.42,-16.72 58.68,-17.7 q 3.66,-0.17 7.47,0.48 0.19,0.03 0.23,-0.15 l 0.07,-0.25 a 0.47,0.47 0 0 0 -0.3,-0.56 q -14.05,-4.79 -25.51,-3.59 -23.73,2.47 -45.36,12.82 -1.45,0.69 -0.35,-0.48 7.79,-8.3 15.66,-15.44 8.88,-8.06 18.44,-13.61 4.87,-0.7 14.13,-3.59 9.68,-3.03 26.34,-3.42 c 26.63,-0.62 48.67,13.52 63.55,35.19 q 15.4,22.41 14.75,50.36 -0.01,0.52 -0.53,0.56 -13.87,1.24 -26.14,7.6 z m -136.57,-15.6 c -6.99,11.67 -12.52,24.25 -16.95,36.95 a 0.45,0.46 20.3 0 0 0.26,0.57 l 0.24,0.1 q 0.16,0.06 0.23,-0.09 1.48,-3.32 3.05,-5.77 8.55,-13.37 18.6,-23.27 17.41,-17.18 38.22,-27.78 a 0.52,0.52 0 0 0 -0.01,-0.93 q -0.25,-0.13 -0.54,-0.14 -15.78,-0.35 -29.96,2.65 -4.59,0.98 -8.94,3.65 -18.63,11.44 -32.53,28.23 -2.15,2.6 -4.21,5.09 -0.03,0.04 -0.01,0.09 0.07,0.15 0.23,0.16 0.17,0.01 0.31,-0.09 15.55,-11.71 31.27,-20.2 a 0.56,0.56 0 0 1 0.74,0.78 z"
       id="path71" />
    <path
       fill="#a06725"
       d="m 441.72,343.25 a 0.56,0.56 0 0 0 -0.74,-0.78 q -15.72,8.49 -31.27,20.2 -0.14,0.1 -0.31,0.09 -0.16,-0.01 -0.23,-0.16 -0.02,-0.05 0.01,-0.09 2.06,-2.49 4.21,-5.09 13.9,-16.79 32.53,-28.23 4.35,-2.67 8.94,-3.65 14.18,-3 29.96,-2.65 0.29,0.01 0.54,0.14 a 0.52,0.52 0 0 1 0.01,0.93 q -20.81,10.6 -38.22,27.78 -10.05,9.9 -18.6,23.27 -1.57,2.45 -3.05,5.77 -0.07,0.15 -0.23,0.09 l -0.24,-0.1 a 0.45,0.46 20.3 0 1 -0.26,-0.57 c 4.43,-12.7 9.96,-25.28 16.95,-36.95 z"
       id="path72" />
    <path
       fill="#a06725"
       d="m 578.29,358.85 q -11.68,7.06 -20.19,17.88 -0.35,0.46 -0.93,0.45 -1.41,-0.02 -2.67,-0.87 c -9.77,-6.48 -17.51,-14.22 -21.72,-25.3 q -4.73,-12.46 -0.12,-25.17 10.8,1.21 18.35,3.38 3.18,0.92 7.33,3.76 10.2,6.97 15.9,17.92 2.02,3.89 4.05,7.95 z"
       id="path73" />
    <path
       fill="#b97d35"
       d="m 334.08,340.35 3.42,4.23 a 0.72,0.72 0 0 1 -0.51,1.18 l -2.81,0.19 a 0.72,0.72 0 0 1 -0.52,-0.18 l -8.97,-7.79 a 0.72,0.72 0 0 1 0.74,-1.21 l 8.36,3.37 a 0.72,0.72 0 0 1 0.29,0.21 z"
       id="path74" />
    <path
       fill="#ffffff"
       d="m 548.53,395.4 q 0.59,0.23 0.36,0.81 c -3.33,8.61 -3.3,19.15 -2.86,28.1 a 0.41,0.41 0 0 1 -0.61,0.38 q -8.02,-4.57 -15.73,-10.53 c -20.04,-15.49 -20.84,-39.05 -13.64,-61.34 q 1.06,-3.27 1.13,0.17 c 0.36,19.62 13.42,35.37 31.35,42.41 z"
       id="path75" />
    <path
       fill="#dcb97c"
       d="m 633.48,372.51 q -18.33,-4.07 -35.22,1.3 -0.62,0.19 -1.84,0.88 -0.97,0.17 -2.74,1.23 c -14.84,8.88 -25.71,24.44 -24.2,42.22 q 0.39,4.54 2.77,7.95 0.32,0.47 -1.66,0.13 -8.82,-13.98 -5.05,-30.56 c 2.16,-9.51 7.28,-15.81 15.02,-20.93 q 10.11,-6.68 22.15,-7.99 16.16,-1.75 30.77,5.77 z"
       id="path76" />
    <path
       fill="#a06725"
       d="m 401.96,422.54 q -5.23,5.74 -7.95,9.45 -11.98,16.34 -17.6,36.27 c -4.03,14.32 -4.24,31.81 1.75,45.9 q -4.97,-3.39 -7.89,-11.68 -5.26,-14.89 -3.47,-29.8 1.13,-9.44 4.62,-20.91 c 7.49,-24.67 19.15,-47.85 35.02,-67.92 q 5.24,-6.61 10.3,-13.24 1.23,-1.62 2.68,-3.04 0.29,-0.29 0.68,-0.18 0.2,0.06 0.14,0.25 -0.03,0.1 -0.09,0.2 -5.22,8.54 -9.14,20.42 -4.44,13.45 -6.53,23.24 -1.68,7.9 -2.52,11.04 z"
       id="path77" />
    <path
       fill="#a06725"
       d="m 633.48,372.51 q 10.04,5.71 14.89,14.65 10.39,19.1 8.08,40.5 -0.93,8.55 -3.76,19.16 -3.93,14.75 -5.95,30.36 -1.31,10.15 1.4,18.17 0.75,2.19 1.18,-0.08 c 0.19,-1 0.1,-1.98 0.34,-3.01 q 2.16,-9.28 4.08,-18.26 a 3.21,3.22 89.1 0 1 2.38,-2.45 q 3.38,-0.83 6.69,-1.23 c 5.66,-0.66 10.26,-3.62 14.25,-7.77 q 0.86,-0.89 0.88,0.34 0.02,1.23 -0.49,2.46 c -5.01,11.84 -13.74,22.51 -23.66,31.38 q -1.92,1.72 -1.5,4.26 1.17,7.03 1.26,14.18 c 0.07,5.17 -0.95,10.04 -5.81,12.69 q -8.2,4.48 -16.99,4.9 -5.91,0.28 -10.09,-0.92 11.08,-8.11 11.91,-22.85 1.42,-25.14 -0.8,-57.21 -0.4,-5.78 -2.32,-20.51 -2.36,-18.09 -9.03,-33.96 -2.7,-6.42 -9.36,-15.22 13.94,7.1 20.65,15.43 c 9.31,11.55 13.39,24.76 14.01,39.39 q 0.13,3.09 1.02,0.13 c 1.54,-5.13 2.83,-11.03 2.6,-16.15 q -0.98,-20.99 -16.85,-32.39 -11.2,-8.05 -27.55,-10.45 -4.25,-0.62 -8.52,-3.36 1.22,-0.69 1.84,-0.88 16.89,-5.37 35.22,-1.3 z"
       id="path78" />
    <path
       fill="#b97d35"
       d="m 596.42,374.69 q 4.27,2.74 8.52,3.36 l 6.12,4.04 q 6.66,8.8 9.36,15.22 6.67,15.87 9.03,33.96 1.92,14.73 2.32,20.51 2.22,32.07 0.8,57.21 -0.83,14.74 -11.91,22.85 -10,-2.67 -18.45,-7.3 -2.1,-1.16 -3.64,0.41 c -2.81,2.87 -0.4,10.87 0.7,14.18 3.53,10.68 9.9,21.9 22.01,21.87 q 7.91,-0.02 15.9,0.35 0.18,0.01 0.23,0.18 0.85,2.64 1.01,5.71 a 0.14,0.14 0 0 1 -0.17,0.15 q -8.41,-1.69 -14.16,-1.24 -7,0.54 -14.01,6.98 a 0.45,0.45 0 0 1 -0.76,-0.3 c -1.18,-15.89 -17.17,-25.73 -28.01,-35.85 -7.06,-6.58 -7.73,-17.7 -1.52,-25 q 5.23,-6.15 12.5,-9.62 0.42,-0.2 0.64,-0.62 0.39,-0.75 -0.25,-1.12 c -0.05,-4.94 -5.7,-10.03 -9.15,-12.99 q -6.52,-5.58 -13.41,-10.86 -1.23,-0.94 -2.64,-1.78 c -2.04,-1.22 -3.12,-3.15 -5.09,-4.34 q -1.54,-0.93 -2.47,-2.06 -2.2,-2.69 -4.93,-5.08 -3.13,-10.42 -0.65,-21.28 0.24,1.41 0.3,2.84 0.06,1.65 0.54,2.72 2.04,4.59 5.87,7.89 8.1,6.98 18.14,10.69 0.17,0.06 0.36,0.05 0.11,-0.01 0.2,0.01 0.49,0.12 0.39,-0.49 -0.05,-0.31 0.12,-0.75 12.19,4.76 18.48,5.52 3.73,0.44 7.32,-0.72 a 0.68,0.68 0 0 1 0.83,0.37 q 4.97,11.5 7.51,22.59 a 0.34,0.34 0 0 0 0.59,0.14 q 0.33,-0.41 0.38,-0.94 c 1.43,-17.18 0.17,-40 -13.72,-52.6 q -10.84,-9.83 -24.74,-11.3 -1.64,-0.18 -3.23,-0.78 -1.29,-0.5 -3.09,-1.25 1.98,0.34 1.66,-0.13 -2.38,-3.41 -2.77,-7.95 c -1.51,-17.78 9.36,-33.34 24.2,-42.22 q 1.77,-1.06 2.74,-1.23 z M 565.13,472 c 4.6,2.17 14.28,5.52 19.28,3.55 q 2.07,-0.81 -0.16,-0.8 -8.11,0.06 -18.1,-3.56 a 0.52,0.51 41.7 0 0 -0.39,0.02 l -0.62,0.29 q -0.55,0.24 -0.01,0.5 z"
       id="path79" />
    <path
       fill="#252324"
       d="m 611.06,382.09 -6.12,-4.04 q 16.35,2.4 27.55,10.45 15.87,11.4 16.85,32.39 c 0.23,5.12 -1.06,11.02 -2.6,16.15 q -0.89,2.96 -1.02,-0.13 c -0.62,-14.63 -4.7,-27.84 -14.01,-39.39 Q 625,389.19 611.06,382.09 Z"
       id="path80" />
    <path
       fill="#dcb97c"
       d="m 580.26,465.19 q -0.17,0.44 -0.12,0.75 0.1,0.61 -0.39,0.49 -0.09,-0.02 -0.2,-0.01 -0.19,0.01 -0.36,-0.05 -10.04,-3.71 -18.14,-10.69 -3.83,-3.3 -5.87,-7.89 -0.48,-1.07 -0.54,-2.72 -0.06,-1.43 -0.3,-2.84 l 2.42,-8.39 q 0.15,-0.53 0.63,-0.25 8.47,4.95 18.97,8 1.46,0.42 1.57,1.93 l 0.75,9.67 q 0.04,0.59 -0.53,0.42 -7.49,-2.22 -12.08,-6.57 -1.72,-1.62 -1.24,0.69 c 1.74,8.53 7.04,14.1 15.43,17.46 z"
       id="path81" />
    <path
       fill="#ffffff"
       d="m 676.75,453.83 q -3.44,3.43 -7.79,5.16 a 0.41,0.41 0 0 1 -0.55,-0.47 q 1.12,-4.97 2.31,-10.19 0.49,-2.15 2.4,-3.58 3.81,-2.84 7.45,-5.85 a 0.4,0.4 0 0 1 0.66,0.32 c -0.21,4.53 -1.22,11.36 -4.48,14.61 z"
       id="path82" />
    <path
       fill="#ffffff"
       d="m 580.6,453.64 q -0.05,-4.99 -1.06,-10.91 a 0.14,0.13 9.7 0 1 0.2,-0.14 q 3.01,1.68 6.08,3.36 c 3.51,1.91 10.07,7.21 9.68,11.71 a 1.97,1.97 0 0 1 -2.3,1.77 q -6.82,-1.2 -12.26,-5.14 -0.34,-0.24 -0.34,-0.65 z"
       id="path83" />
    <path
       fill="#a06725"
       d="m 592.68,500.62 q -9.02,-2.7 -13.76,-5 c -12.1,-5.88 -22.52,-18.18 -23.93,-32.11 q 2.73,2.39 4.93,5.08 0.93,1.13 2.47,2.06 c 1.97,1.19 3.05,3.12 5.09,4.34 q 1.41,0.84 2.64,1.78 6.89,5.28 13.41,10.86 c 3.45,2.96 9.1,8.05 9.15,12.99 z"
       id="path84" />
    <path
       fill="#a06725"
       d="m 565.13,472 q -0.54,-0.26 0.01,-0.5 l 0.62,-0.29 a 0.52,0.51 41.7 0 1 0.39,-0.02 q 9.99,3.62 18.1,3.56 2.23,-0.01 0.16,0.8 c -5,1.97 -14.68,-1.38 -19.28,-3.55 z"
       id="path85" />
    <path
       fill="#a06725"
       d="m 611.7,538.64 c 3.24,1.47 6.99,3.23 10.55,3.55 8.66,0.76 15.78,0.44 23.32,-4.22 a 0.44,0.44 0 0 1 0.66,0.26 q 0.07,0.24 -0.05,0.47 -2.3,4.55 -4.82,9.4 -0.7,1.36 -2,1.73 -4.98,1.44 -14.46,1.97 c -8.66,0.48 -11.81,-5.54 -13.73,-12.71 q -0.22,-0.79 0.53,-0.45 z"
       id="path86" />
  </g>
  <g
     id="g2"
     transform="translate(-225.43284,-224.1592)">
    <text
       xml:space="preserve"
       id="text121"
       style="font-size:64px;line-height:1.15;white-space:pre;shape-inside:url(#rect121);display:inline;fill:#a06725;fill-opacity:1"
       x="533.39722"
       y="0"><tspan
         x="263.47522"
         y="677.83865"
         id="tspan6"><tspan
           style="font-family:'Bravura Text';-inkscape-font-specification:'Bravura Text';text-align:center;text-anchor:middle;display:inline;fill:#000000"
           id="tspan5">OKLAHOMA CITY 
</tspan></tspan><tspan
         x="254.77118"
         y="751.43863"
         id="tspan8"><tspan
           style="font-family:'Bravura Text';-inkscape-font-specification:'Bravura Text';text-align:center;text-anchor:middle;display:inline;fill:#000000"
           id="tspan7">JAVA USER GROUP</tspan></tspan></text>
  </g>
  <rect
     style="fill:#000000;fill-opacity:1;stroke:#000000;stroke-width:0.519853;stroke-opacity:1"
     id="rect122"
     width="576.16174"
     height="1.7537791"
     x="9.9489851"
     y="469.36185" />
</svg>
